HIERARCHY
ROOT root
{
	OFFSET	0	13.1	24.9
	CHANNELS 6  Xposition Yposition Zposition Xrotation Yrotation Zrotation
	JOINT spine_1
	{
		OFFSET	0	9.99999	0
		CHANNELS 3  Xrotation Yrotation Zrotation
		JOINT spine_2
		{
			OFFSET	0	112	-10
			CHANNELS 3  Xrotation Yrotation Zrotation
			JOINT spine_3
			{
				OFFSET	0	206.5	19.3
				CHANNELS 3  Xrotation Yrotation Zrotation
				JOINT spine_4
				{
					OFFSET	0	110.4	14.6
					CHANNELS 3  Xrotation Yrotation Zrotation
					JOINT neck_1
					{
						OFFSET	0	71.8	-50.3
						CHANNELS 3  Xrotation Yrotation Zrotation
						JOINT neck_2
						{
							OFFSET	0	86.2	-25.8
							CHANNELS 3  Xrotation Yrotation Zrotation
							JOINT head_ee
							{
								OFFSET	0	179.8	-8.7
								CHANNELS 3  Xrotation Yrotation Zrotation
								End Site
								{
									OFFSET	1	0	0
								}
							}
						}
					}
					JOINT left_clavicle
					{
						OFFSET	-43.2	22.4	-70.8
						CHANNELS 3  Xrotation Yrotation Zrotation
						JOINT left_shoulder
						{
							OFFSET	-93.9	-5.79999	48.7
							CHANNELS 3  Xrotation Yrotation Zrotation
							JOINT left_elbow
							{
								OFFSET	-291.4	-30.8	15.2
								CHANNELS 3  Xrotation Yrotation Zrotation
								JOINT left_lowarm_twist
								{
									OFFSET	-110.7	-3.89999	13.6
									CHANNELS 3  Xrotation Yrotation Zrotation
									JOINT left_hand
									{
										OFFSET	-110.7	-3.89999	13.6
										CHANNELS 3  Xrotation Yrotation Zrotation
										JOINT left_ee
										{
											OFFSET	-80.8	-5.10001	12.1
											CHANNELS 3  Xrotation Yrotation Zrotation
											End Site
											{
												OFFSET	1	0	0
											}
										}
									}
								}
							}
						}
					}
					JOINT right_clavicle
					{
						OFFSET	43.2	22.4	-70.8
						CHANNELS 3  Xrotation Yrotation Zrotation
						JOINT right_shoulder
						{
							OFFSET	93.9	-5.79999	48.7
							CHANNELS 3  Xrotation Yrotation Zrotation
							JOINT right_elbow
							{
								OFFSET	291.4	-30.8	15.2
								CHANNELS 3  Xrotation Yrotation Zrotation
								JOINT right_lowarm_twist
								{
									OFFSET	110.7	-3.89999	13.6
									CHANNELS 3  Xrotation Yrotation Zrotation
									JOINT right_hand
									{
										OFFSET	110.7	-3.89999	13.6
										CHANNELS 3  Xrotation Yrotation Zrotation
										JOINT right_ee
										{
											OFFSET	80.8	-5.10001	12.1
											CHANNELS 3  Xrotation Yrotation Zrotation
											End Site
											{
												OFFSET	1	0	0
											}
										}
									}
								}
							}
						}
					}
				}
			}
		}
	}
	JOINT left_hip
	{
		OFFSET	-82.8	-127.5	0.300001
		CHANNELS 3  Xrotation Yrotation Zrotation
		JOINT left_knee
		{
			OFFSET	-28.2	-396.7	2.2
			CHANNELS 3  Xrotation Yrotation Zrotation
			JOINT left_ankle
			{
				OFFSET	-11.7	-411.3	35.4
				CHANNELS 3  Xrotation Yrotation Zrotation
				JOINT left_toes
				{
					OFFSET	0	-60	-88.6
					CHANNELS 3  Xrotation Yrotation Zrotation
					JOINT left_foot_ee
					{
						OFFSET	-22.5	-16.5	-42.2
						CHANNELS 3  Xrotation Yrotation Zrotation
						End Site
						{
							OFFSET	1	0	0
						}
					}
				}
			}
		}
	}
	JOINT right_hip
	{
		OFFSET	82.8	-127.5	0.300001
		CHANNELS 3  Xrotation Yrotation Zrotation
		JOINT right_knee
		{
			OFFSET	28.2	-396.7	2.2
			CHANNELS 3  Xrotation Yrotation Zrotation
			JOINT right_ankle
			{
				OFFSET	11.7	-411.3	35.4
				CHANNELS 3  Xrotation Yrotation Zrotation
				JOINT right_toes
				{
					OFFSET	0	-60	-88.6
					CHANNELS 3  Xrotation Yrotation Zrotation
					JOINT right_foot_ee
					{
						OFFSET	22.5	-16.5	-42.2
						CHANNELS 3  Xrotation Yrotation Zrotation
						End Site
						{
							OFFSET	1	0	0
						}
					}
				}
			}
		}
	}
}
MOTION
Frames: 12
Frame Time: 0.02
3392.5292723 717.375 -1508.24518466 164.629439538 73.3170251303 -161.289988752 1.62803 -0.0595746 -1.98877 1.63022 0.0670713 -1.98853 1.62793 0.428668 -1.94295 1.62268 0.116498 -1.98625 -18.5798 7.18098 4.3967 -18.6886 11.4879 6.92451 -0.0 0.0 -0.0 5.15722 24.2699 9.79866 -18.8285 -13.8298 66.6726 0.681615 -18.6574 0.111971 24.5352 0.202693 -3.10374 5.22029 24.383 44.5642 -0.0 0.0 -0.0 10.4819 -5.31274 -20.2617 -6.99166 13.3511 -58.8471 0.603608 16.6473 -0.0883121 -57.0274 4.91555 -4.99906 -4.35505 -3.1493 28.7311 0.0 0.0 0.0 8.52425 -3.72157 -8.64007 -43.3771 -0.695478 6.46446 39.9448 25.5935 -5.18228 -8.30904 0.0 0.0 -0.0 0.0 -0.0 -11.7426 -5.33265 -5.72726 3.13245 0.141611 0.459722 35.7979 11.2714 4.67199 -21.0735 0.0 0.0 0.0 0.0 0.0 
3377.15727362 720.641 -1496.98165099 163.418949589 71.0290925073 -160.298401114 1.61625 0.310373 -2.06102 1.6185 0.440865 -2.03711 1.60263 0.806112 -1.92212 1.59781 0.492499 -2.02525 -20.2567 7.11169 5.00131 -20.364 11.2017 7.64982 -0.0 0.0 -0.0 5.11191 25.272 9.6917 -21.2008 -13.6437 65.6395 0.415789 -11.6386 0.0423762 23.2467 0.22528 -2.94071 4.95794 25.3538 42.4419 -0.0 0.0 -0.0 10.6963 -3.14641 -20.8797 -2.99017 16.108 -60.2051 0.648642 17.8133 -0.101653 -56.1609 4.80953 -4.96571 -4.48358 -4.57822 28.8527 0.0 0.0 0.0 16.6716 -6.04007 -8.46104 -50.88 -1.29967 7.44768 34.7961 26.5507 -4.68626 -9.19578 0.0 0.0 -0.0 0.0 -0.0 -13.9361 -5.41957 -5.65371 4.24793 0.198092 0.62151 38.8068 12.0847 4.97356 -21.623 0.0 0.0 0.0 0.0 0.0 
3368.86526097 721.493 -1494.62158831 164.094861226 70.5681714822 -161.006251753 1.61842 0.275358 -2.04302 1.62065 0.404775 -2.02137 1.60619 0.767609 -1.9133 1.60138 0.455872 -2.01046 -20.5786 6.9803 4.5315 -20.7044 11.2122 7.1988 -0.0 0.0 -0.0 4.87787 25.5672 9.36474 -22.4878 -13.4804 65.2913 0.332961 -9.36617 0.0272754 23.1504 0.226822 -2.9285 4.98113 25.9195 42.6779 -0.0 0.0 -0.0 10.7665 -2.10716 -21.1047 -0.995158 17.383 -60.2887 0.682382 18.677 -0.112216 -56.6771 4.87263 -4.98577 -4.48398 -4.66619 28.8024 0.0 0.0 0.0 18.4469 -6.61461 -8.40889 -52.1028 -1.41019 7.60019 32.0296 26.7589 -4.38637 -9.50832 0.0 0.0 -0.0 0.0 -0.0 -14.17 -5.50635 -5.38475 4.14635 0.192819 0.606822 36.6572 11.9784 4.77207 -22.6359 0.0 0.0 0.0 0.0 0.0 
3368.87493154 721.493 -1494.72126956 164.073246604 70.5948918643 -160.983333436 1.61842 0.275358 -2.04302 1.62065 0.404775 -2.02137 1.60619 0.767609 -1.9133 1.60138 0.455872 -2.01046 -20.5786 6.9803 4.5315 -20.7044 11.2122 7.1988 -0.0 0.0 -0.0 4.87787 25.5672 9.36474 -22.4878 -13.4804 65.2913 0.332961 -9.36617 0.0272754 23.1504 0.226822 -2.9285 4.98113 25.9195 42.6779 -0.0 0.0 -0.0 10.7665 -2.10716 -21.1047 -0.995158 17.383 -60.2887 0.682382 18.677 -0.112216 -56.6771 4.87263 -4.98577 -4.48398 -4.66619 28.8024 0.0 0.0 0.0 18.4469 -6.61461 -8.40889 -52.1028 -1.41019 7.60019 32.0296 26.7589 -4.38637 -9.50832 0.0 0.0 -0.0 0.0 -0.0 -14.17 -5.50635 -5.38475 4.14635 0.192819 0.606822 36.6572 11.9784 4.77207 -22.6359 0.0 0.0 0.0 0.0 0.0 
3363.18272578 720.748 -1491.22266747 163.816127493 70.3318743184 -160.910908527 1.5999 0.302297 -1.97355 1.60196 0.427243 -1.95033 1.58724 0.777308 -1.83909 1.58284 0.477162 -1.93872 -21.1356 7.33819 5.0629 -21.2716 11.6928 7.91411 -0.0 0.0 -0.0 4.64759 25.898 9.04618 -23.6113 -13.5089 65.8176 0.32674 -9.19421 0.0262723 22.5715 0.235651 -2.85508 4.9246 27.4563 42.317 -0.0 0.0 -0.0 10.7398 -1.29175 -21.1083 0.785993 18.5315 -60.8174 0.712126 19.4312 -0.121927 -56.9288 4.90347 -4.99535 -4.50658 -4.72543 28.9376 0.0 0.0 0.0 20.0727 -7.04507 -8.09898 -52.1459 -1.41415 7.60553 29.4078 26.9572 -4.0882 -9.84809 0.0 0.0 -0.0 0.0 -0.0 -14.5376 -5.56485 -5.22822 3.56191 0.162983 0.522138 36.5171 12.1689 4.7637 -22.8523 0.0 0.0 0.0 0.0 0.0 
3345.43589785 720.178 -1489.67448827 161.996330832 70.3252919864 -159.342606872 1.36531 0.257482 -1.88467 1.36721 0.376865 -1.86448 1.3549 0.719162 -1.76103 1.35083 0.432066 -1.85247 -21.105 7.1289 5.16929 -21.2208 11.2341 7.91414 -0.0 0.0 -0.0 4.06003 25.899 8.26992 -25.4005 -13.0372 66.1384 0.214161 -6.05596 0.0113286 22.6477 0.234531 -2.86475 4.83876 26.8529 41.5945 -0.0 0.0 -0.0 10.9003 0.544823 -21.5617 4.25357 20.2942 -61.7302 0.758176 20.585 -0.137684 -56.2771 4.82373 -4.97028 -4.6175 -5.04866 29.5828 0.0 0.0 0.0 23.9654 -8.27782 -6.19457 -45.5544 -0.8574 6.75767 26.1295 26.954 -3.6911 -10.5868 0.0 0.0 -0.0 0.0 -0.0 -16.7423 -5.44504 -5.70429 3.44124 0.15693 0.504617 37.1479 11.9409 4.81741 -22.7687 0.0 0.0 0.0 0.0 0.0 
3340.55768058 716.418 -1494.99835357 163.650823074 70.8044834432 -160.856055776 1.29977 0.120051 -1.86575 1.30168 0.238509 -1.85434 1.29403 0.583177 -1.77636 1.28974 0.295366 -1.84614 -19.7135 7.57281 5.68738 -19.8067 11.6873 8.41152 -0.0 0.0 -0.0 3.7078 25.5693 7.80785 -25.9412 -12.9273 66.5721 0.21629 -6.11571 0.0115543 22.3063 0.239448 -2.82142 4.87019 28.3086 41.9234 -0.0 0.0 -0.0 11.1626 3.92318 -22.2889 6.21237 21.0587 -62.1329 0.780702 21.1432 -0.145706 -55.9636 4.78546 -4.95789 -4.48157 -5.2016 28.4587 0.0 0.0 0.0 25.2148 -9.95123 -6.53151 -39.7696 -0.452173 5.96601 22.9282 26.9392 -3.286 -11.3796 0.0 0.0 -0.0 0.0 -0.0 -16.2108 -5.2042 -6.04922 3.46576 0.158157 0.508178 35.6646 11.8158 4.67256 -23.3073 0.0 0.0 0.0 0.0 0.0 
3327.81776369 711.348 -1495.55424329 166.398594937 71.5829363103 -163.533594557 1.42546 0.207737 -1.81387 1.42723 0.322718 -1.79698 1.41707 0.651453 -1.70558 1.41321 0.373959 -1.78703 -19.5822 8.29162 6.56502 -19.6725 12.6092 9.50377 -0.0 0.0 -0.0 2.98483 25.3145 6.84808 -26.9379 -12.7644 67.1974 0.249784 -7.05386 0.0153953 21.8318 0.245852 -2.76115 4.767 30.8725 41.1834 -0.0 0.0 -0.0 11.2589 6.45615 -22.5776 7.35829 21.733 -62.5729 0.804302 21.7236 -0.15433 -56.0925 4.80119 -4.96301 -4.46962 -5.19752 28.3711 0.0 0.0 0.0 26.4299 -11.265 -6.6238 -33.0274 -0.0837487 4.99838 18.776 27.0999 -2.74049 -11.9904 0.0 0.0 -0.0 0.0 -0.0 -16.1127 -4.9111 -5.99256 3.77775 0.173901 0.553447 35.8872 11.316 4.68172 -23.6421 0.0 0.0 0.0 0.0 0.0 
3327.74446313 711.348 -1494.66719069 166.542531206 71.3825868215 -163.685389292 1.42546 0.207737 -1.81387 1.42723 0.322718 -1.79698 1.41707 0.651453 -1.70558 1.41321 0.373959 -1.78703 -19.5822 8.29162 6.56502 -19.6725 12.6092 9.50377 -0.0 0.0 -0.0 2.98483 25.3145 6.84808 -26.9379 -12.7644 67.1974 0.249784 -7.05386 0.0153953 21.8318 0.245852 -2.76115 4.767 30.8725 41.1834 -0.0 0.0 -0.0 11.2589 6.45615 -22.5776 7.35829 21.733 -62.5729 0.804302 21.7236 -0.15433 -56.0925 4.80119 -4.96301 -4.46962 -5.19752 28.3711 0.0 0.0 0.0 26.4299 -11.265 -6.6238 -33.0274 -0.0837487 4.99838 18.776 27.0999 -2.74049 -11.9904 0.0 0.0 -0.0 0.0 -0.0 -16.1127 -4.9111 -5.99256 3.77775 0.173901 0.553447 35.8872 11.316 4.68172 -23.6421 0.0 0.0 0.0 0.0 0.0 
3317.91953787 704.386 -1492.57551388 167.223284156 71.8635102354 -164.755379947 1.43584 0.277062 -1.59279 1.43717 0.377841 -1.57194 1.42672 0.663471 -1.47433 1.42394 0.422333 -1.56058 -18.7749 8.13674 6.92154 -18.8176 12.0164 9.66105 -0.0 0.0 -0.0 2.39671 25.0829 6.06122 -27.7363 -12.6102 67.6946 0.232279 -6.56397 0.0133198 21.4556 0.250576 -2.71333 4.7652 30.5553 41.1673 -0.0 0.0 -0.0 11.4433 8.09174 -23.0138 8.96873 22.5247 -62.5957 0.82329 22.1871 -0.16143 -56.03 4.79357 -4.96053 -4.4084 -4.89477 28.0941 0.0 0.0 0.0 27.3218 -12.2235 -6.67566 -27.5956 0.128623 4.19216 15.681 27.1362 -2.31622 -12.4134 0.0 0.0 -0.0 0.0 -0.0 -15.9726 -4.7913 -5.6082 3.22647 0.14625 0.473401 35.5383 11.5428 4.65346 -23.7046 0.0 0.0 0.0 0.0 0.0 
3317.83660616 704.386 -1491.34058239 167.406726722 71.5944341058 -164.948561401 1.43584 0.277062 -1.59279 1.43717 0.377841 -1.57194 1.42672 0.663471 -1.47433 1.42394 0.422333 -1.56058 -18.7749 8.13674 6.92154 -18.8176 12.0164 9.66105 -0.0 0.0 -0.0 2.39671 25.0829 6.06122 -27.7363 -12.6102 67.6946 0.232279 -6.56397 0.0133198 21.4556 0.250576 -2.71333 4.7652 30.5553 41.1673 -0.0 0.0 -0.0 11.4433 8.09174 -23.0138 8.96873 22.5247 -62.5957 0.82329 22.1871 -0.16143 -56.03 4.79357 -4.96053 -4.4084 -4.89477 28.0941 0.0 0.0 0.0 27.3218 -12.2235 -6.67566 -27.5956 0.128623 4.19216 15.681 27.1362 -2.31622 -12.4134 0.0 0.0 -0.0 0.0 -0.0 -15.9726 -4.7913 -5.6082 3.22647 0.14625 0.473401 35.5383 11.5428 4.65346 -23.7046 0.0 0.0 0.0 0.0 0.0 
3311.40502664 701.728 -1490.81631139 169.639244709 71.7932823599 -167.180417366 1.51136 0.280832 -1.53059 1.51258 0.377646 -1.50962 1.50253 0.649814 -1.41399 1.49998 0.418373 -1.49885 -17.3947 8.67203 7.76742 -17.3893 12.3839 10.4734 -0.0 0.0 -0.0 2.10577 25.0428 5.67311 -28.0947 -12.3968 67.675 0.265617 -7.49602 0.0174002 20.8888 0.257099 -2.64122 4.76721 31.4071 41.1852 -0.0 0.0 -0.0 11.5282 9.31456 -23.2135 10.4643 23.2748 -63.034 0.895529 23.9227 -0.189723 -56.0209 4.79245 -4.96017 -4.32817 -4.83822 27.5269 0.0 0.0 0.0 27.2323 -12.6898 -7.2653 -20.5981 0.288049 3.13081 12.6239 27.2251 -1.8856 -12.7233 0.0 0.0 -0.0 0.0 -0.0 -15.3461 -4.67622 -5.53437 2.79415 0.125107 0.410446 34.4644 10.5022 4.52308 -23.665 0.0 0.0 0.0 0.0 0.0 
